<svg xmlns="http://www.w3.org/2000/svg" viewBox="0 0 64.36 62.89"><defs><style>.cls-1{fill:#243977;}.cls-2{fill:#fff;}</style></defs><g id="Layer_2" data-name="Layer 2"><g id="Layer_1-2" data-name="Layer 1"><polygon class="cls-1" points="50.37 5.71 18.51 25.5 18.51 14.09 41.16 0 50.37 5.71"/><polygon class="cls-1" points="64.36 14.46 64.36 19.89 18.51 48.34 18.51 36.92 59.57 11.51 64.36 14.46"/><polygon class="cls-1" points="64.36 31.4 64.36 42.72 31.95 62.89 22.74 57.18 64.36 31.4"/><polygon class="cls-2" points="31.95 5.71 0 25.6 0 14.18 22.74 0 31.95 5.71"/><polygon class="cls-2" points="45.85 19.98 4.33 45.76 0 43 0 37.02 41.16 11.42 45.85 14.36 45.85 19.98"/><polygon class="cls-2" points="45.85 31.4 45.85 42.81 22.74 57.18 13.54 51.47 45.85 31.4"/></g></g></svg>